<svg version="1.1" xmlns="http://www.w3.org/2000/svg" xmlns:xlink="http://www.w3.org/1999/xlink" width="500" height="500" viewBox="0,0,500,500"><g transform=""><g fill="none" fill-rule="nonzero" stroke="none" stroke-width="none" stroke-linecap="butt" stroke-linejoin="miter" stroke-miterlimit="10" stroke-dasharray="" stroke-dashoffset="0" font-family="none" font-weight="none" font-size="none" text-anchor="none" style="mix-blend-mode: normal"><g><g fill="none"><path d="M200,250c0,-27.61424 22.38576,-50 50,-50c27.61424,0 50,22.38576 50,50c0,27.61424 -22.38576,50 -50,50c-27.61424,0 -50,-22.38576 -50,-50z" stroke-opacity="0" stroke="#ffffff" stroke-width="1"/><path d="M286.60254,200c0,-27.61424 22.38576,-50 50,-50c27.61424,0 50,22.38576 50,50c0,27.61424 -22.38576,50 -50,50c-27.61424,0 -50,-22.38576 -50,-50z" stroke-opacity="0" stroke="#ffffff" stroke-width="1"/><path d="M373.20508,150c0,-27.61424 22.38576,-50 50,-50c27.61424,0 50,22.38576 50,50c0,27.61424 -22.38576,50 -50,50c-27.61424,0 -50,-22.38576 -50,-50z" stroke-opacity="0" stroke="#ffffff" stroke-width="1"/><path d="M200,250c0,-27.61424 22.38576,-50 50,-50c27.61424,0 50,22.38576 50,50c0,27.61424 -22.38576,50 -50,50c-27.61424,0 -50,-22.38576 -50,-50z" stroke-opacity="0" stroke="#ffffff" stroke-width="1"/><path d="M286.60254,300c0,-27.61424 22.38576,-50 50,-50c27.61424,0 50,22.38576 50,50c0,27.61424 -22.38576,50 -50,50c-27.61424,0 -50,-22.38576 -50,-50z" stroke-opacity="0" stroke="#ffffff" stroke-width="1"/><path d="M373.20508,350c0,-27.61424 22.38576,-50 50,-50c27.61424,0 50,22.38576 50,50c0,27.61424 -22.38576,50 -50,50c-27.61424,0 -50,-22.38576 -50,-50z" stroke-opacity="0" stroke="#ffffff" stroke-width="1"/><path d="M200,250c0,-27.61424 22.38576,-50 50,-50c27.61424,0 50,22.38576 50,50c0,27.61424 -22.38576,50 -50,50c-27.61424,0 -50,-22.38576 -50,-50z" stroke-opacity="0" stroke="#ffffff" stroke-width="1"/><path d="M200,350c0,-27.61424 22.38576,-50 50,-50c27.61424,0 50,22.38576 50,50c0,27.61424 -22.38576,50 -50,50c-27.61424,0 -50,-22.38576 -50,-50z" stroke-opacity="0" stroke="#ffffff" stroke-width="1"/><path d="M200,450c0,-27.61424 22.38576,-50 50,-50c27.61424,0 50,22.38576 50,50c0,27.61424 -22.38576,50 -50,50c-27.61424,0 -50,-22.38576 -50,-50z" stroke-opacity="0" stroke="#ffffff" stroke-width="1"/><path d="M200,250c0,-27.61424 22.38576,-50 50,-50c27.61424,0 50,22.38576 50,50c0,27.61424 -22.38576,50 -50,50c-27.61424,0 -50,-22.38576 -50,-50z" stroke-opacity="0" stroke="#ffffff" stroke-width="1"/><path d="M113.39746,300c0,-27.61424 22.38576,-50 50,-50c27.61424,0 50,22.38576 50,50c0,27.61424 -22.38576,50 -50,50c-27.61424,0 -50,-22.38576 -50,-50z" stroke-opacity="0" stroke="#ffffff" stroke-width="1"/><path d="M26.79492,350c0,-27.61424 22.38576,-50 50,-50c27.61424,0 50,22.38576 50,50c0,27.61424 -22.38576,50 -50,50c-27.61424,0 -50,-22.38576 -50,-50z" stroke-opacity="0" stroke="#ffffff" stroke-width="1"/><path d="M200,250c0,-27.61424 22.38576,-50 50,-50c27.61424,0 50,22.38576 50,50c0,27.61424 -22.38576,50 -50,50c-27.61424,0 -50,-22.38576 -50,-50z" stroke-opacity="0" stroke="#ffffff" stroke-width="1"/><path d="M113.39746,200c0,-27.61424 22.38576,-50 50,-50c27.61424,0 50,22.38576 50,50c0,27.61424 -22.38576,50 -50,50c-27.61424,0 -50,-22.38576 -50,-50z" stroke-opacity="0" stroke="#ffffff" stroke-width="1"/><path d="M26.79492,150c0,-27.61424 22.38576,-50 50,-50c27.61424,0 50,22.38576 50,50c0,27.61424 -22.38576,50 -50,50c-27.61424,0 -50,-22.38576 -50,-50z" stroke-opacity="0" stroke="#ffffff" stroke-width="1"/><path d="M200,250c0,-27.61424 22.38576,-50 50,-50c27.61424,0 50,22.38576 50,50c0,27.61424 -22.38576,50 -50,50c-27.61424,0 -50,-22.38576 -50,-50z" stroke-opacity="0" stroke="#ffffff" stroke-width="1"/><path d="M200,150c0,-27.61424 22.38576,-50 50,-50c27.61424,0 50,22.38576 50,50c0,27.61424 -22.38576,50 -50,50c-27.61424,0 -50,-22.38576 -50,-50z" stroke-opacity="0" stroke="#ffffff" stroke-width="1"/><path d="M200,50c0,-27.61424 22.38576,-50 50,-50c27.61424,0 50,22.38576 50,50c0,27.61424 -22.38576,50 -50,50c-27.61424,0 -50,-22.38576 -50,-50z" stroke-opacity="0" stroke="#ffffff" stroke-width="1"/><path d="M423.20508,150l-173.20508,300l-173.20508,-300l346.41016,0" stroke="#808080" stroke-width="1.5"/><path d="M336.60254,300h-173.20508l86.60254,-150l86.60254,150" stroke="#808080" stroke-width="1.5"/><path d="M250,150l0,-100" stroke="#808080" stroke-width="1.5"/><path d="M336.60254,300l86.60254,50" stroke="#808080" stroke-width="1.5"/><path d="M163.39746,300l-86.60254,50" stroke="#808080" stroke-width="1.5"/></g><g fill="none" stroke="#ffffff" stroke-width="2"><path d="M125,250c0,-69.03559 55.96441,-125 125,-125c69.03559,0 125,55.96441 125,125c0,69.03559 -55.96441,125 -125,125c-69.03559,0 -125,-55.96441 -125,-125z"/></g><g fill="none"><path d="M225,250c0,-13.80712 11.19288,-25 25,-25c13.80712,0 25,11.19288 25,25c0,13.80712 -11.19288,25 -25,25c-13.80712,0 -25,-11.19288 -25,-25z" stroke-opacity="0" stroke="#ffffff" stroke-width="1"/><path d="M268.30127,225c0,-13.80712 11.19288,-25 25,-25c13.80712,0 25,11.19288 25,25c0,13.80712 -11.19288,25 -25,25c-13.80712,0 -25,-11.19288 -25,-25z" stroke-opacity="0" stroke="#ffffff" stroke-width="1"/><path d="M311.60254,200c0,-13.80712 11.19288,-25 25,-25c13.80712,0 25,11.19288 25,25c0,13.80712 -11.19288,25 -25,25c-13.80712,0 -25,-11.19288 -25,-25z" stroke-opacity="0" stroke="#ffffff" stroke-width="1"/><path d="M225,250c0,-13.80712 11.19288,-25 25,-25c13.80712,0 25,11.19288 25,25c0,13.80712 -11.19288,25 -25,25c-13.80712,0 -25,-11.19288 -25,-25z" stroke-opacity="0" stroke="#ffffff" stroke-width="1"/><path d="M268.30127,275c0,-13.80712 11.19288,-25 25,-25c13.80712,0 25,11.19288 25,25c0,13.80712 -11.19288,25 -25,25c-13.80712,0 -25,-11.19288 -25,-25z" stroke-opacity="0" stroke="#ffffff" stroke-width="1"/><path d="M311.60254,300c0,-13.80712 11.19288,-25 25,-25c13.80712,0 25,11.19288 25,25c0,13.80712 -11.19288,25 -25,25c-13.80712,0 -25,-11.19288 -25,-25z" stroke-opacity="0" stroke="#ffffff" stroke-width="1"/><path d="M225,250c0,-13.80712 11.19288,-25 25,-25c13.80712,0 25,11.19288 25,25c0,13.80712 -11.19288,25 -25,25c-13.80712,0 -25,-11.19288 -25,-25z" stroke-opacity="0" stroke="#ffffff" stroke-width="1"/><path d="M225,300c0,-13.80712 11.19288,-25 25,-25c13.80712,0 25,11.19288 25,25c0,13.80712 -11.19288,25 -25,25c-13.80712,0 -25,-11.19288 -25,-25z" stroke-opacity="0" stroke="#ffffff" stroke-width="1"/><path d="M225,350c0,-13.80712 11.19288,-25 25,-25c13.80712,0 25,11.19288 25,25c0,13.80712 -11.19288,25 -25,25c-13.80712,0 -25,-11.19288 -25,-25z" stroke-opacity="0" stroke="#ffffff" stroke-width="1"/><path d="M225,250c0,-13.80712 11.19288,-25 25,-25c13.80712,0 25,11.19288 25,25c0,13.80712 -11.19288,25 -25,25c-13.80712,0 -25,-11.19288 -25,-25z" stroke-opacity="0" stroke="#ffffff" stroke-width="1"/><path d="M181.69873,275c0,-13.80712 11.19288,-25 25,-25c13.80712,0 25,11.19288 25,25c0,13.80712 -11.19288,25 -25,25c-13.80712,0 -25,-11.19288 -25,-25z" stroke-opacity="0" stroke="#ffffff" stroke-width="1"/><path d="M138.39746,300c0,-13.80712 11.19288,-25 25,-25c13.80712,0 25,11.19288 25,25c0,13.80712 -11.19288,25 -25,25c-13.80712,0 -25,-11.19288 -25,-25z" stroke-opacity="0" stroke="#ffffff" stroke-width="1"/><path d="M225,250c0,-13.80712 11.19288,-25 25,-25c13.80712,0 25,11.19288 25,25c0,13.80712 -11.19288,25 -25,25c-13.80712,0 -25,-11.19288 -25,-25z" stroke-opacity="0" stroke="#ffffff" stroke-width="1"/><path d="M181.69873,225c0,-13.80712 11.19288,-25 25,-25c13.80712,0 25,11.19288 25,25c0,13.80712 -11.19288,25 -25,25c-13.80712,0 -25,-11.19288 -25,-25z" stroke-opacity="0" stroke="#ffffff" stroke-width="1"/><path d="M138.39746,200c0,-13.80712 11.19288,-25 25,-25c13.80712,0 25,11.19288 25,25c0,13.80712 -11.19288,25 -25,25c-13.80712,0 -25,-11.19288 -25,-25z" stroke-opacity="0" stroke="#ffffff" stroke-width="1"/><path d="M225,250c0,-13.80712 11.19288,-25 25,-25c13.80712,0 25,11.19288 25,25c0,13.80712 -11.19288,25 -25,25c-13.80712,0 -25,-11.19288 -25,-25z" stroke-opacity="0" stroke="#ffffff" stroke-width="1"/><path d="M225,200c0,-13.80712 11.19288,-25 25,-25c13.80712,0 25,11.19288 25,25c0,13.80712 -11.19288,25 -25,25c-13.80712,0 -25,-11.19288 -25,-25z" stroke-opacity="0" stroke="#ffffff" stroke-width="1"/><path d="M225,150c0,-13.80712 11.19288,-25 25,-25c13.80712,0 25,11.19288 25,25c0,13.80712 -11.19288,25 -25,25c-13.80712,0 -25,-11.19288 -25,-25z" stroke-opacity="0" stroke="#ffffff" stroke-width="1"/><path d="M336.60254,200l-86.60254,150l-86.60254,-150l173.20508,0" stroke="#808080" stroke-width="1.5"/><path d="M293.30127,275h-86.60254l43.30127,-75l43.30127,75" stroke="#808080" stroke-width="1.5"/><path d="M250,200l0,-50" stroke="#808080" stroke-width="1.5"/><path d="M293.30127,275l43.30127,25" stroke="#808080" stroke-width="1.5"/><path d="M206.69873,275l-43.30127,25" stroke="#808080" stroke-width="1.5"/><path d="M250,150l86.60254,150h-173.20508l86.60254,-150" stroke="#ffffff" stroke-width="1.5"/><path d="M293.30127,225l-43.30127,75l-43.30127,-75h86.60254" stroke="#ffffff" stroke-width="1.5"/><path d="M293.30127,225l43.30127,-25" stroke="#ffffff" stroke-width="1.5"/><path d="M250,300v50" stroke="#ffffff" stroke-width="1.5"/><path d="M206.69873,225l-43.30127,-25" stroke="#ffffff" stroke-width="1.5"/><path d="M336.60254,200v100l-86.60254,50l-86.60254,-50v-100l86.60254,-50l86.60254,50" stroke="#ffffff" stroke-width="1.5"/></g><g fill="none" stroke="#808080" stroke-width="1"><path d="M237.5,250c0,-6.90356 5.59644,-12.5 12.5,-12.5c6.90356,0 12.5,5.59644 12.5,12.5c0,6.90356 -5.59644,12.5 -12.5,12.5c-6.90356,0 -12.5,-5.59644 -12.5,-12.5z"/></g><g fill="#ffffff" stroke="none" stroke-width="1"><path d="M250,140.625c-5.54164,0 -10.24102,-3.60614 -11.87951,-8.59978c2.8658,3.35087 7.12462,5.47478 11.87951,5.47478c4.75489,0 9.01371,-2.12391 11.87951,-5.47478c-1.6385,4.99365 -6.33788,8.59978 -11.87951,8.59978z"/><path d="M250,359.375c5.54164,0 10.24102,3.60614 11.87951,8.59978c-2.8658,-3.35087 -7.12462,-5.47478 -11.87951,-5.47478c-4.75489,0 -9.01371,2.12391 -11.87951,5.47478c1.6385,-4.99365 6.33788,-8.59978 11.87951,-8.59978z"/></g><g stroke-width="1"><path d="M225,250c0,-13.80712 11.19288,-25 25,-25c13.80712,0 25,11.19288 25,25c0,13.80712 -11.19288,25 -25,25c-13.80712,0 -25,-11.19288 -25,-25z" fill="none" stroke-opacity="0" stroke="#ffffff"/><path d="M245.83333,200c0,-2.30119 1.86548,-4.16667 4.16667,-4.16667c2.30119,0 4.16667,1.86548 4.16667,4.16667c0,2.30119 -1.86548,4.16667 -4.16667,4.16667c-2.30119,0 -4.16667,-1.86548 -4.16667,-4.16667z" fill="#808080" stroke="none"/><path d="M225,200c0,-13.80712 11.19288,-25 25,-25c13.80712,0 25,11.19288 25,25c0,13.80712 -11.19288,25 -25,25c-13.80712,0 -25,-11.19288 -25,-25z" fill="none" stroke-opacity="0" stroke="#ffffff"/><path d="M245.83333,150c0,-2.30119 1.86548,-4.16667 4.16667,-4.16667c2.30119,0 4.16667,1.86548 4.16667,4.16667c0,2.30119 -1.86548,4.16667 -4.16667,4.16667c-2.30119,0 -4.16667,-1.86548 -4.16667,-4.16667z" fill="#ffffff" stroke="none"/><path d="M225,150c0,-13.80712 11.19288,-25 25,-25c13.80712,0 25,11.19288 25,25c0,13.80712 -11.19288,25 -25,25c-13.80712,0 -25,-11.19288 -25,-25z" fill="none" stroke-opacity="0" stroke="#ffffff"/><path d="M225,250c0,-13.80712 11.19288,-25 25,-25c13.80712,0 25,11.19288 25,25c0,13.80712 -11.19288,25 -25,25c-13.80712,0 -25,-11.19288 -25,-25z" fill="none" stroke-opacity="0" stroke="#ffffff"/><path d="M250,206.69873c0,-13.80712 11.19288,-25 25,-25c13.80712,0 25,11.19288 25,25c0,13.80712 -11.19288,25 -25,25c-13.80712,0 -25,-11.19288 -25,-25z" fill="none" stroke-opacity="0" stroke="#ffffff"/><path d="M295.83333,163.39746c0,-2.30119 1.86548,-4.16667 4.16667,-4.16667c2.30119,0 4.16667,1.86548 4.16667,4.16667c0,2.30119 -1.86548,4.16667 -4.16667,4.16667c-2.30119,0 -4.16667,-1.86548 -4.16667,-4.16667z" fill="#ffffff" stroke="none"/><path d="M275,163.39746c0,-13.80712 11.19288,-25 25,-25c13.80712,0 25,11.19288 25,25c0,13.80712 -11.19288,25 -25,25c-13.80712,0 -25,-11.19288 -25,-25z" fill="none" stroke-opacity="0" stroke="#ffffff"/><path d="M225,250c0,-13.80712 11.19288,-25 25,-25c13.80712,0 25,11.19288 25,25c0,13.80712 -11.19288,25 -25,25c-13.80712,0 -25,-11.19288 -25,-25z" fill="none" stroke-opacity="0" stroke="#ffffff"/><path d="M289.1346,225c0,-2.30119 1.86548,-4.16667 4.16667,-4.16667c2.30119,0 4.16667,1.86548 4.16667,4.16667c0,2.30119 -1.86548,4.16667 -4.16667,4.16667c-2.30119,0 -4.16667,-1.86548 -4.16667,-4.16667z" fill="#ffffff" stroke="none"/><path d="M268.30127,225c0,-13.80712 11.19288,-25 25,-25c13.80712,0 25,11.19288 25,25c0,13.80712 -11.19288,25 -25,25c-13.80712,0 -25,-11.19288 -25,-25z" fill="none" stroke-opacity="0" stroke="#ffffff"/><path d="M332.43587,200c0,-2.30119 1.86548,-4.16667 4.16667,-4.16667c2.30119,0 4.16667,1.86548 4.16667,4.16667c0,2.30119 -1.86548,4.16667 -4.16667,4.16667c-2.30119,0 -4.16667,-1.86548 -4.16667,-4.16667z" fill="#ffffff" stroke="none"/><path d="M311.60254,200c0,-13.80712 11.19288,-25 25,-25c13.80712,0 25,11.19288 25,25c0,13.80712 -11.19288,25 -25,25c-13.80712,0 -25,-11.19288 -25,-25z" fill="none" stroke-opacity="0" stroke="#ffffff"/><path d="M225,250c0,-13.80712 11.19288,-25 25,-25c13.80712,0 25,11.19288 25,25c0,13.80712 -11.19288,25 -25,25c-13.80712,0 -25,-11.19288 -25,-25z" fill="none" stroke-opacity="0" stroke="#ffffff"/><path d="M275,250c0,-13.80712 11.19288,-25 25,-25c13.80712,0 25,11.19288 25,25c0,13.80712 -11.19288,25 -25,25c-13.80712,0 -25,-11.19288 -25,-25z" fill="none" stroke-opacity="0" stroke="#ffffff"/><path d="M345.83333,250c0,-2.30119 1.86548,-4.16667 4.16667,-4.16667c2.30119,0 4.16667,1.86548 4.16667,4.16667c0,2.30119 -1.86548,4.16667 -4.16667,4.16667c-2.30119,0 -4.16667,-1.86548 -4.16667,-4.16667z" fill="#ffffff" stroke="none"/><path d="M325,250c0,-13.80712 11.19288,-25 25,-25c13.80712,0 25,11.19288 25,25c0,13.80712 -11.19288,25 -25,25c-13.80712,0 -25,-11.19288 -25,-25z" fill="none" stroke-opacity="0" stroke="#ffffff"/><path d="M225,250c0,-13.80712 11.19288,-25 25,-25c13.80712,0 25,11.19288 25,25c0,13.80712 -11.19288,25 -25,25c-13.80712,0 -25,-11.19288 -25,-25z" fill="none" stroke-opacity="0" stroke="#ffffff"/><path d="M289.1346,275c0,-2.30119 1.86548,-4.16667 4.16667,-4.16667c2.30119,0 4.16667,1.86548 4.16667,4.16667c0,2.30119 -1.86548,4.16667 -4.16667,4.16667c-2.30119,0 -4.16667,-1.86548 -4.16667,-4.16667z" fill="#808080" stroke="none"/><path d="M268.30127,275c0,-13.80712 11.19288,-25 25,-25c13.80712,0 25,11.19288 25,25c0,13.80712 -11.19288,25 -25,25c-13.80712,0 -25,-11.19288 -25,-25z" fill="none" stroke-opacity="0" stroke="#ffffff"/><path d="M332.43587,300c0,-2.30119 1.86548,-4.16667 4.16667,-4.16667c2.30119,0 4.16667,1.86548 4.16667,4.16667c0,2.30119 -1.86548,4.16667 -4.16667,4.16667c-2.30119,0 -4.16667,-1.86548 -4.16667,-4.16667z" fill="#ffffff" stroke="none"/><path d="M311.60254,300c0,-13.80712 11.19288,-25 25,-25c13.80712,0 25,11.19288 25,25c0,13.80712 -11.19288,25 -25,25c-13.80712,0 -25,-11.19288 -25,-25z" fill="none" stroke-opacity="0" stroke="#ffffff"/><path d="M225,250c0,-13.80712 11.19288,-25 25,-25c13.80712,0 25,11.19288 25,25c0,13.80712 -11.19288,25 -25,25c-13.80712,0 -25,-11.19288 -25,-25z" fill="none" stroke-opacity="0" stroke="#ffffff"/><path d="M250,293.30127c0,-13.80712 11.19288,-25 25,-25c13.80712,0 25,11.19288 25,25c0,13.80712 -11.19288,25 -25,25c-13.80712,0 -25,-11.19288 -25,-25z" fill="none" stroke-opacity="0" stroke="#ffffff"/><path d="M295.83333,336.60254c0,-2.30119 1.86548,-4.16667 4.16667,-4.16667c2.30119,0 4.16667,1.86548 4.16667,4.16667c0,2.30119 -1.86548,4.16667 -4.16667,4.16667c-2.30119,0 -4.16667,-1.86548 -4.16667,-4.16667z" fill="#ffffff" stroke="none"/><path d="M275,336.60254c0,-13.80712 11.19288,-25 25,-25c13.80712,0 25,11.19288 25,25c0,13.80712 -11.19288,25 -25,25c-13.80712,0 -25,-11.19288 -25,-25z" fill="none" stroke-opacity="0" stroke="#ffffff"/><path d="M225,250c0,-13.80712 11.19288,-25 25,-25c13.80712,0 25,11.19288 25,25c0,13.80712 -11.19288,25 -25,25c-13.80712,0 -25,-11.19288 -25,-25z" fill="none" stroke-opacity="0" stroke="#ffffff"/><path d="M245.83333,300c0,-2.30119 1.86548,-4.16667 4.16667,-4.16667c2.30119,0 4.16667,1.86548 4.16667,4.16667c0,2.30119 -1.86548,4.16667 -4.16667,4.16667c-2.30119,0 -4.16667,-1.86548 -4.16667,-4.16667z" fill="#ffffff" stroke="none"/><path d="M225,300c0,-13.80712 11.19288,-25 25,-25c13.80712,0 25,11.19288 25,25c0,13.80712 -11.19288,25 -25,25c-13.80712,0 -25,-11.19288 -25,-25z" fill="none" stroke-opacity="0" stroke="#ffffff"/><path d="M245.83333,350c0,-2.30119 1.86548,-4.16667 4.16667,-4.16667c2.30119,0 4.16667,1.86548 4.16667,4.16667c0,2.30119 -1.86548,4.16667 -4.16667,4.16667c-2.30119,0 -4.16667,-1.86548 -4.16667,-4.16667z" fill="#ffffff" stroke="none"/><path d="M225,350c0,-13.80712 11.19288,-25 25,-25c13.80712,0 25,11.19288 25,25c0,13.80712 -11.19288,25 -25,25c-13.80712,0 -25,-11.19288 -25,-25z" fill="none" stroke-opacity="0" stroke="#ffffff"/><path d="M225,250c0,-13.80712 11.19288,-25 25,-25c13.80712,0 25,11.19288 25,25c0,13.80712 -11.19288,25 -25,25c-13.80712,0 -25,-11.19288 -25,-25z" fill="none" stroke-opacity="0" stroke="#ffffff"/><path d="M200,293.30127c0,-13.80712 11.19288,-25 25,-25c13.80712,0 25,11.19288 25,25c0,13.80712 -11.19288,25 -25,25c-13.80712,0 -25,-11.19288 -25,-25z" fill="none" stroke-opacity="0" stroke="#ffffff"/><path d="M195.83333,336.60254c0,-2.30119 1.86548,-4.16667 4.16667,-4.16667c2.30119,0 4.16667,1.86548 4.16667,4.16667c0,2.30119 -1.86548,4.16667 -4.16667,4.16667c-2.30119,0 -4.16667,-1.86548 -4.16667,-4.16667z" fill="#ffffff" stroke="none"/><path d="M175,336.60254c0,-13.80712 11.19288,-25 25,-25c13.80712,0 25,11.19288 25,25c0,13.80712 -11.19288,25 -25,25c-13.80712,0 -25,-11.19288 -25,-25z" fill="none" stroke-opacity="0" stroke="#ffffff"/><path d="M225,250c0,-13.80712 11.19288,-25 25,-25c13.80712,0 25,11.19288 25,25c0,13.80712 -11.19288,25 -25,25c-13.80712,0 -25,-11.19288 -25,-25z" fill="none" stroke-opacity="0" stroke="#ffffff"/><path d="M202.53206,275c0,-2.30119 1.86548,-4.16667 4.16667,-4.16667c2.30119,0 4.16667,1.86548 4.16667,4.16667c0,2.30119 -1.86548,4.16667 -4.16667,4.16667c-2.30119,0 -4.16667,-1.86548 -4.16667,-4.16667z" fill="#808080" stroke="none"/><path d="M181.69873,275c0,-13.80712 11.19288,-25 25,-25c13.80712,0 25,11.19288 25,25c0,13.80712 -11.19288,25 -25,25c-13.80712,0 -25,-11.19288 -25,-25z" fill="none" stroke-opacity="0" stroke="#ffffff"/><path d="M159.23079,300c0,-2.30119 1.86548,-4.16667 4.16667,-4.16667c2.30119,0 4.16667,1.86548 4.16667,4.16667c0,2.30119 -1.86548,4.16667 -4.16667,4.16667c-2.30119,0 -4.16667,-1.86548 -4.16667,-4.16667z" fill="#ffffff" stroke="none"/><path d="M138.39746,300c0,-13.80712 11.19288,-25 25,-25c13.80712,0 25,11.19288 25,25c0,13.80712 -11.19288,25 -25,25c-13.80712,0 -25,-11.19288 -25,-25z" fill="none" stroke-opacity="0" stroke="#ffffff"/><path d="M225,250c0,-13.80712 11.19288,-25 25,-25c13.80712,0 25,11.19288 25,25c0,13.80712 -11.19288,25 -25,25c-13.80712,0 -25,-11.19288 -25,-25z" fill="none" stroke-opacity="0" stroke="#ffffff"/><path d="M175,250c0,-13.80712 11.19288,-25 25,-25c13.80712,0 25,11.19288 25,25c0,13.80712 -11.19288,25 -25,25c-13.80712,0 -25,-11.19288 -25,-25z" fill="none" stroke-opacity="0" stroke="#ffffff"/><path d="M145.83333,250c0,-2.30119 1.86548,-4.16667 4.16667,-4.16667c2.30119,0 4.16667,1.86548 4.16667,4.16667c0,2.30119 -1.86548,4.16667 -4.16667,4.16667c-2.30119,0 -4.16667,-1.86548 -4.16667,-4.16667z" fill="#ffffff" stroke="none"/><path d="M125,250c0,-13.80712 11.19288,-25 25,-25c13.80712,0 25,11.19288 25,25c0,13.80712 -11.19288,25 -25,25c-13.80712,0 -25,-11.19288 -25,-25z" fill="none" stroke-opacity="0" stroke="#ffffff"/><path d="M225,250c0,-13.80712 11.19288,-25 25,-25c13.80712,0 25,11.19288 25,25c0,13.80712 -11.19288,25 -25,25c-13.80712,0 -25,-11.19288 -25,-25z" fill="none" stroke-opacity="0" stroke="#ffffff"/><path d="M202.53206,225c0,-2.30119 1.86548,-4.16667 4.16667,-4.16667c2.30119,0 4.16667,1.86548 4.16667,4.16667c0,2.30119 -1.86548,4.16667 -4.16667,4.16667c-2.30119,0 -4.16667,-1.86548 -4.16667,-4.16667z" fill="#ffffff" stroke="none"/><path d="M181.69873,225c0,-13.80712 11.19288,-25 25,-25c13.80712,0 25,11.19288 25,25c0,13.80712 -11.19288,25 -25,25c-13.80712,0 -25,-11.19288 -25,-25z" fill="none" stroke-opacity="0" stroke="#ffffff"/><path d="M159.23079,200c0,-2.30119 1.86548,-4.16667 4.16667,-4.16667c2.30119,0 4.16667,1.86548 4.16667,4.16667c0,2.30119 -1.86548,4.16667 -4.16667,4.16667c-2.30119,0 -4.16667,-1.86548 -4.16667,-4.16667z" fill="#ffffff" stroke="none"/><path d="M138.39746,200c0,-13.80712 11.19288,-25 25,-25c13.80712,0 25,11.19288 25,25c0,13.80712 -11.19288,25 -25,25c-13.80712,0 -25,-11.19288 -25,-25z" fill="none" stroke-opacity="0" stroke="#ffffff"/><path d="M225,250c0,-13.80712 11.19288,-25 25,-25c13.80712,0 25,11.19288 25,25c0,13.80712 -11.19288,25 -25,25c-13.80712,0 -25,-11.19288 -25,-25z" fill="none" stroke-opacity="0" stroke="#ffffff"/><path d="M200,206.69873c0,-13.80712 11.19288,-25 25,-25c13.80712,0 25,11.19288 25,25c0,13.80712 -11.19288,25 -25,25c-13.80712,0 -25,-11.19288 -25,-25z" fill="none" stroke-opacity="0" stroke="#ffffff"/><path d="M195.83333,163.39746c0,-2.30119 1.86548,-4.16667 4.16667,-4.16667c2.30119,0 4.16667,1.86548 4.16667,4.16667c0,2.30119 -1.86548,4.16667 -4.16667,4.16667c-2.30119,0 -4.16667,-1.86548 -4.16667,-4.16667z" fill="#ffffff" stroke="none"/><path d="M175,163.39746c0,-13.80712 11.19288,-25 25,-25c13.80712,0 25,11.19288 25,25c0,13.80712 -11.19288,25 -25,25c-13.80712,0 -25,-11.19288 -25,-25z" fill="none" stroke-opacity="0" stroke="#ffffff"/></g><g fill="none"><path d="M200,250c0,-27.61424 22.38576,-50 50,-50c27.61424,0 50,22.38576 50,50c0,27.61424 -22.38576,50 -50,50c-27.61424,0 -50,-22.38576 -50,-50z" stroke-opacity="0" stroke="#ffffff" stroke-width="1"/><path d="M286.60254,200c0,-27.61424 22.38576,-50 50,-50c27.61424,0 50,22.38576 50,50c0,27.61424 -22.38576,50 -50,50c-27.61424,0 -50,-22.38576 -50,-50z" stroke-opacity="0" stroke="#ffffff" stroke-width="1"/><path d="M373.20508,150c0,-27.61424 22.38576,-50 50,-50c27.61424,0 50,22.38576 50,50c0,27.61424 -22.38576,50 -50,50c-27.61424,0 -50,-22.38576 -50,-50z" stroke-opacity="0" stroke="#ffffff" stroke-width="1"/><path d="M200,250c0,-27.61424 22.38576,-50 50,-50c27.61424,0 50,22.38576 50,50c0,27.61424 -22.38576,50 -50,50c-27.61424,0 -50,-22.38576 -50,-50z" stroke-opacity="0" stroke="#ffffff" stroke-width="1"/><path d="M286.60254,300c0,-27.61424 22.38576,-50 50,-50c27.61424,0 50,22.38576 50,50c0,27.61424 -22.38576,50 -50,50c-27.61424,0 -50,-22.38576 -50,-50z" stroke-opacity="0" stroke="#ffffff" stroke-width="1"/><path d="M373.20508,350c0,-27.61424 22.38576,-50 50,-50c27.61424,0 50,22.38576 50,50c0,27.61424 -22.38576,50 -50,50c-27.61424,0 -50,-22.38576 -50,-50z" stroke-opacity="0" stroke="#ffffff" stroke-width="1"/><path d="M200,250c0,-27.61424 22.38576,-50 50,-50c27.61424,0 50,22.38576 50,50c0,27.61424 -22.38576,50 -50,50c-27.61424,0 -50,-22.38576 -50,-50z" stroke-opacity="0" stroke="#ffffff" stroke-width="1"/><path d="M200,350c0,-27.61424 22.38576,-50 50,-50c27.61424,0 50,22.38576 50,50c0,27.61424 -22.38576,50 -50,50c-27.61424,0 -50,-22.38576 -50,-50z" stroke-opacity="0" stroke="#ffffff" stroke-width="1"/><path d="M200,450c0,-27.61424 22.38576,-50 50,-50c27.61424,0 50,22.38576 50,50c0,27.61424 -22.38576,50 -50,50c-27.61424,0 -50,-22.38576 -50,-50z" stroke-opacity="0" stroke="#ffffff" stroke-width="1"/><path d="M200,250c0,-27.61424 22.38576,-50 50,-50c27.61424,0 50,22.38576 50,50c0,27.61424 -22.38576,50 -50,50c-27.61424,0 -50,-22.38576 -50,-50z" stroke-opacity="0" stroke="#ffffff" stroke-width="1"/><path d="M113.39746,300c0,-27.61424 22.38576,-50 50,-50c27.61424,0 50,22.38576 50,50c0,27.61424 -22.38576,50 -50,50c-27.61424,0 -50,-22.38576 -50,-50z" stroke-opacity="0" stroke="#ffffff" stroke-width="1"/><path d="M26.79492,350c0,-27.61424 22.38576,-50 50,-50c27.61424,0 50,22.38576 50,50c0,27.61424 -22.38576,50 -50,50c-27.61424,0 -50,-22.38576 -50,-50z" stroke-opacity="0" stroke="#ffffff" stroke-width="1"/><path d="M200,250c0,-27.61424 22.38576,-50 50,-50c27.61424,0 50,22.38576 50,50c0,27.61424 -22.38576,50 -50,50c-27.61424,0 -50,-22.38576 -50,-50z" stroke-opacity="0" stroke="#ffffff" stroke-width="1"/><path d="M113.39746,200c0,-27.61424 22.38576,-50 50,-50c27.61424,0 50,22.38576 50,50c0,27.61424 -22.38576,50 -50,50c-27.61424,0 -50,-22.38576 -50,-50z" stroke-opacity="0" stroke="#ffffff" stroke-width="1"/><path d="M26.79492,150c0,-27.61424 22.38576,-50 50,-50c27.61424,0 50,22.38576 50,50c0,27.61424 -22.38576,50 -50,50c-27.61424,0 -50,-22.38576 -50,-50z" stroke-opacity="0" stroke="#ffffff" stroke-width="1"/><path d="M200,250c0,-27.61424 22.38576,-50 50,-50c27.61424,0 50,22.38576 50,50c0,27.61424 -22.38576,50 -50,50c-27.61424,0 -50,-22.38576 -50,-50z" stroke-opacity="0" stroke="#ffffff" stroke-width="1"/><path d="M200,150c0,-27.61424 22.38576,-50 50,-50c27.61424,0 50,22.38576 50,50c0,27.61424 -22.38576,50 -50,50c-27.61424,0 -50,-22.38576 -50,-50z" stroke-opacity="0" stroke="#ffffff" stroke-width="1"/><path d="M200,50c0,-27.61424 22.38576,-50 50,-50c27.61424,0 50,22.38576 50,50c0,27.61424 -22.38576,50 -50,50c-27.61424,0 -50,-22.38576 -50,-50z" stroke-opacity="0" stroke="#ffffff" stroke-width="1"/><path d="M250,50l173.20508,300h-346.41016l173.20508,-300" stroke="#ffffff" stroke-width="1.5"/><path d="M336.60254,200l-86.60254,150l-86.60254,-150l173.20508,0" stroke="#ffffff" stroke-width="1.5"/><path d="M336.60254,200l86.60254,-50" stroke="#ffffff" stroke-width="1.5"/><path d="M250,350v100" stroke="#ffffff" stroke-width="1.5"/><path d="M163.39746,200l-86.60254,-50" stroke="#ffffff" stroke-width="1.5"/><path d="M423.20508,150v200l-173.20508,100l-173.20508,-100v-200l173.20508,-100l173.20508,100" stroke="#ffffff" stroke-width="1.5"/></g></g></g></g></svg>