<?xml version="1.0" standalone="no"?>
<!DOCTYPE svg PUBLIC "-//W3C//DTD SVG 20010904//EN"
 "http://www.w3.org/TR/2001/REC-SVG-20010904/DTD/svg10.dtd">
<svg version="1.0" xmlns="http://www.w3.org/2000/svg"
 width="2500.000000pt" height="2500.000000pt" viewBox="0 0 2500.000000 2500.000000"
 preserveAspectRatio="xMidYMid meet">
<metadata>
Created by potrace 1.14, written by Peter Selinger 2001-2017
</metadata>
<g transform="translate(0.000000,2500.000000) scale(0.100000,-0.100000)"
fill="#000000" stroke="none">
<path d="M0 12500 l0 -12500 12500 0 12500 0 0 12500 0 12500 -12500 0 -12500
0 0 -12500z m13148 9970 c-241 -89 -342 -197 -384 -410 -15 -77 -17 -218 -21
-1424 -4 -1362 0 -1620 32 -1741 48 -183 149 -282 373 -365 50 -19 68 -29 51
-30 -37 0 -153 -41 -238 -85 -91 -45 -177 -129 -213 -205 -15 -31 -35 -94 -45
-140 -17 -80 -18 -170 -18 -1570 0 -1399 1 -1490 18 -1570 45 -209 144 -311
393 -405 l66 -25 429 0 428 0 73 26 c249 89 353 201 395 424 17 88 18 196 18
1550 0 1354 -1 1462 -18 1550 -41 222 -140 329 -385 420 l-77 29 725 0 725 0
-77 -29 c-111 -41 -193 -87 -247 -139 -102 -97 -136 -200 -151 -451 -13 -215
-13 -2546 0 -2760 14 -247 49 -351 147 -447 55 -54 189 -127 283 -155 39 -11
-35 -14 -550 -18 l-595 -5 -100 -44 c-209 -91 -377 -227 -617 -501 -89 -103
-271 -331 -392 -492 -49 -65 -91 -118 -93 -118 -3 0 10 26 28 58 236 419 297
563 306 732 4 81 2 103 -16 151 -40 105 -119 170 -247 203 -52 14 -138 16
-559 16 l-496 0 -87 -36 c-157 -65 -246 -129 -271 -197 -28 -73 -5 -183 63
-312 37 -69 1731 -2558 1974 -2900 202 -283 333 -404 563 -515 l83 -40 510 0
511 -1 -80 -33 c-119 -49 -162 -73 -212 -119 -55 -50 -73 -89 -73 -155 0 -66
24 -142 74 -237 40 -76 1826 -2698 2020 -2965 157 -216 310 -350 515 -449 l85
-41 -755 0 -754 0 130 64 c162 79 206 111 235 171 19 39 22 57 16 106 -8 77
-45 172 -111 279 -88 145 -1857 2724 -1956 2852 -175 226 -306 341 -535 467
l-111 61 -313 0 -313 0 -89 -36 c-229 -91 -319 -187 -366 -386 -16 -67 -17
-192 -17 -1578 0 -1386 1 -1511 17 -1578 46 -198 139 -297 358 -384 84 -33 91
-37 58 -38 -20 0 -70 -12 -110 -26 -245 -88 -352 -199 -394 -414 -15 -77 -17
-218 -21 -1424 -4 -1362 0 -1620 32 -1741 48 -183 149 -282 373 -365 l77 -29
-725 0 -725 0 77 29 c241 89 342 197 384 410 15 77 17 218 21 1424 4 1362 0
1620 -32 1741 -48 183 -149 282 -373 365 -69 26 -73 29 -41 30 48 0 161 40
259 90 138 73 214 176 248 340 16 78 17 200 17 1570 0 1399 -1 1490 -18 1570
-45 208 -144 310 -392 406 l-60 23 524 1 523 0 132 64 c72 35 150 78 174 95
51 38 81 97 82 159 0 57 -42 180 -89 263 -47 81 -1801 2649 -1919 2809 -219
296 -336 404 -597 549 l-110 61 -499 0 -500 0 141 69 c158 78 195 106 225 164
44 87 4 237 -110 412 -117 180 -1817 2663 -1897 2770 -204 272 -331 388 -570
519 l-120 66 755 0 755 0 -100 -43 c-120 -52 -170 -83 -212 -130 -81 -93 -67
-228 45 -413 62 -104 1911 -2807 2017 -2949 156 -211 312 -341 519 -435 l66
-30 306 0 307 0 91 36 c119 48 192 92 249 152 58 63 90 126 113 227 18 76 19
151 19 1585 0 1405 -1 1510 -18 1580 -26 111 -65 187 -128 245 -70 66 -110 90
-228 136 -62 25 -87 39 -69 39 15 0 60 12 100 26 245 88 352 199 394 414 15
77 17 218 21 1424 4 1362 0 1620 -32 1741 -48 183 -149 282 -373 365 l-77 29
725 0 725 0 -77 -29z m-2233 -3994 c-106 -41 -218 -102 -305 -167 -165 -121
-412 -391 -686 -749 -192 -251 -195 -255 -127 -135 230 400 300 585 291 758
-9 159 -85 249 -253 298 -59 17 -48 18 540 18 l600 0 -60 -23z m6781 -12
c-227 -92 -318 -188 -364 -386 -16 -67 -17 -192 -17 -1578 0 -1386 1 -1511 17
-1578 46 -199 143 -301 366 -387 l91 -35 223 -1 223 0 -54 -20 c-239 -84 -346
-186 -398 -379 -17 -61 -18 -161 -18 -1600 0 -1439 1 -1539 18 -1600 52 -190
150 -287 375 -370 l77 -29 -288 -1 -288 0 -91 -35 c-179 -69 -294 -150 -484
-340 -151 -151 -275 -297 -491 -578 -85 -111 -159 -206 -165 -212 -5 -5 16 35
47 90 119 210 225 424 255 514 94 282 18 476 -212 542 l-63 18 162 0 c148 1
168 3 235 27 225 80 337 186 382 360 32 122 36 323 36 1619 -1 1289 -5 1489
-35 1606 -46 178 -157 282 -383 363 -70 25 -82 26 -295 27 l-222 0 65 23 c178
63 296 151 350 260 68 137 65 71 65 1711 0 1210 -3 1494 -14 1555 -39 215
-130 318 -367 414 l-89 36 720 0 720 0 -89 -36z m-9198 -2786 c-84 -129 -263
-494 -309 -628 -43 -124 -46 -240 -10 -310 36 -70 112 -134 223 -190 l100 -50
-140 0 c-126 0 -148 -3 -214 -26 -225 -80 -337 -186 -382 -360 -32 -122 -36
-323 -36 -1619 1 -1289 5 -1489 35 -1606 46 -178 157 -282 383 -363 71 -25 81
-26 305 -27 l232 0 -67 -24 c-241 -84 -353 -199 -396 -405 -16 -78 -17 -200
-17 -1570 0 -1399 1 -1490 18 -1570 45 -208 144 -310 392 -406 l60 -23 -720 0
-720 -1 89 36 c227 92 318 188 364 386 16 67 17 192 17 1578 0 1386 -1 1511
-17 1578 -47 199 -142 300 -366 387 l-91 35 -233 1 -233 0 54 20 c239 84 346
186 398 379 17 61 18 161 18 1600 0 1439 -1 1539 -18 1600 -52 190 -150 287
-375 370 l-77 29 217 1 218 0 157 72 c245 112 394 224 596 444 159 174 371
435 504 622 42 59 72 88 41 40z m3275 -4095 c-103 -184 -216 -421 -253 -529
-27 -80 -34 -115 -34 -184 -1 -74 3 -92 26 -136 36 -69 103 -125 221 -184 l99
-50 -415 0 -416 0 -73 -26 c-245 -88 -352 -199 -394 -414 -15 -77 -17 -218
-21 -1424 -4 -1362 0 -1620 32 -1741 48 -183 149 -282 373 -365 l77 -29 -725
0 -725 0 77 29 c241 89 342 197 384 410 15 77 17 218 21 1424 4 1362 0 1620
-32 1741 -48 183 -149 282 -373 365 l-77 29 492 1 492 0 168 78 c231 107 295
153 508 366 178 178 321 347 524 619 57 75 105 137 107 137 1 0 -27 -53 -63
-117z m3361 -3979 c-95 -166 -231 -450 -265 -552 -84 -252 -30 -380 209 -500
l104 -52 -649 1 -648 0 45 22 c377 179 398 193 630 426 174 174 326 355 513
607 62 83 113 150 115 149 1 -1 -23 -47 -54 -101z"/>
</g>
</svg>
